<svg width="157" height="228" viewBox="0 0 157 228" fill="none" xmlns="http://www.w3.org/2000/svg">
<path fill-rule="evenodd" clip-rule="evenodd" d="M104.207 0.981488C102.205 1.85567 97.1727 6.33755 98.1932 6.33755C98.439 6.33755 98.1399 6.88843 97.5296 7.5623C96.9187 8.23553 96.3211 9.84381 96.2005 11.1358C95.9217 14.133 95.2282 14.7878 92.2677 14.8474C90.5632 14.8816 89.525 15.3209 88.6765 16.3669C87.8542 17.3818 87.2794 17.6348 86.826 17.1822C86.3732 16.7302 85.8532 16.8893 85.1527 17.6956C84.5932 18.3391 83.5689 19.0091 82.8754 19.1841C82.0042 19.4041 82.2201 19.5258 83.5721 19.5765C86.17 19.6741 86.3243 19.9169 85.6626 22.8584C84.4376 28.3013 84.5011 29.9723 86.1141 34.7699C87.8383 39.8965 90.3791 43.0534 92.8805 43.1758C95.5953 43.3083 97.4947 42.9716 99.3096 42.0347C100.528 41.4058 101.34 41.3063 101.767 41.7323C102.193 42.1583 101.542 42.8075 99.7986 43.6956C95.1597 46.0582 95.3165 50.8564 100.37 61.1755C103.279 67.1154 103.824 68.8004 104.051 72.5793L104.319 77.0123L102.155 74.1799C99.3471 70.505 94.8917 67.3164 93.9207 68.2857C93.405 68.8004 93.7143 69.2454 95.0746 69.9478C99.168 72.0607 102.923 77.2184 102.863 80.6454C102.839 81.9697 102.752 81.931 101.831 80.1902C100.542 77.7559 99.1077 76.1293 97.4972 75.2747C96.7441 74.8754 97.2083 75.6931 98.6301 77.2684C100.864 79.7452 102.253 82.2334 102.253 83.7605C102.253 84.1098 101.039 83.4258 99.5541 82.2403C93.0234 77.0256 89.3789 75.669 79.4761 74.7663C68.4651 73.7628 61.5959 71.371 56.4851 66.7611C52.3776 63.057 52.5307 64.2292 57.5989 75.3083C58.4448 77.1562 58.9757 79.1715 58.7801 79.787C58.5845 80.4026 57.3208 81.7345 55.972 82.7475C53.917 84.2905 49.7664 90.2202 49.9969 91.284C50.0343 91.4583 49.8254 92.0288 49.5327 92.5518C49.1085 93.31 47.5418 93.5027 41.8106 93.5027C37.8568 93.5027 33.2636 93.2942 31.6048 93.0393C29.628 92.7357 28.5884 92.8054 28.5884 93.2415C28.5884 93.8507 39.0291 106.987 40.162 107.804C40.9221 108.351 47.0046 120.575 47.0046 121.555C47.0046 122.555 43.682 122.254 36.9601 120.644C34.754 120.116 32.7974 119.835 32.6114 120.021C32.0119 120.62 38.9377 122.4 43.3861 122.79C47.947 123.191 48.509 123.637 49.8248 127.893C50.2096 129.14 50.0401 129.319 48.476 129.312C45.5052 129.299 40.0356 127.597 37.425 125.872C34.7477 124.104 33.4211 123.799 33.8122 125.041C34.279 126.524 41.7756 129.998 45.2455 130.34C50.397 130.846 51.3368 131.136 51.7178 132.332C51.9122 132.942 52.7999 134.224 53.6909 135.184L55.3115 136.927H53.026C49.8794 136.927 41.8487 135.649 40.4954 134.934C39.8845 134.611 39.3841 133.962 39.3841 133.492C39.3841 133.022 38.2112 131.579 36.7772 130.286C34.4511 128.188 33.8865 127.968 31.5382 128.239C27.498 128.707 16.8865 132.61 9.29906 136.42C4.29812 138.931 3.92725 139.348 4.2924 142.065C4.56801 144.116 4.35718 144.545 2.306 146.107C-0.254487 148.057 -0.706001 150.299 1.0683 152.256C1.97387 153.255 2.00562 153.643 1.28993 154.979C0.212269 156.989 1.03084 158.038 4.7998 159.474C8.39984 160.847 18.3731 160.518 21.394 158.927C22.9943 158.084 24.0282 157.981 26.4324 158.43C30.2414 159.14 31.9535 158.517 35.3935 155.163C37.5831 153.029 38.6824 152.466 41.4264 152.076C46.4184 151.367 63.4813 151.413 67.3538 152.146C72.5681 153.133 73.0095 153.804 72.9307 160.619C72.8583 166.898 74.317 171.984 77.7456 177.406C78.6505 178.837 79.3916 180.289 79.3916 180.632C79.3916 180.975 77.6472 183.117 75.5153 185.392C72.8932 188.19 70.3264 190.174 67.5805 191.523C63.9258 193.319 63.0958 193.487 59.2323 193.21C53.6115 192.807 50.4122 191.116 45.53 185.967C39.9677 180.101 36.2216 178.374 32.833 180.111C30.9863 181.058 28.6043 183.787 28.5243 185.046C28.3693 187.479 28.758 190.5 29.501 192.631C29.9423 193.896 30.2103 195.217 30.0966 195.565C29.6788 196.846 33.4268 202.546 35.9428 204.454C39.4749 207.134 48.1146 209.935 53.99 210.305C58.0466 210.561 59.7613 210.307 65.5516 208.587C72.6272 206.487 75.8989 206.278 75.8989 207.927C75.8989 208.578 75.1026 208.942 73.367 209.084C70.2261 209.339 69.5377 209.9 67.5367 213.842C66.0691 216.734 66.0043 217.206 66.7251 219.776C67.9914 224.291 70.6058 227.378 73.5899 227.881C80.2794 229.009 95.5947 221.91 100.598 215.361C103.747 211.241 103.537 210.098 98.5336 204.097C92.5941 196.974 91.8473 193.719 94.6205 187.037C95.286 185.432 95.7121 185.244 99.3077 184.955C101.483 184.781 104.208 184.151 105.363 183.554C107.404 182.501 107.505 182.51 108.973 183.886C112.943 187.609 113.513 191.593 111.234 199.686C110.011 204.026 109.967 208.902 111.13 211.071C111.511 211.782 112.542 212.835 113.42 213.409C114.822 214.326 115.461 214.355 118.637 213.652C123.234 212.634 124.598 211.922 132.735 206.301C141.396 200.318 142.953 198.661 143.367 194.99C144.151 188.049 139.568 185.215 132.47 188.252L129.56 189.498V186.064C129.56 181.464 128.676 179.798 125.328 178.079C122.327 176.538 118.129 172.362 118.129 170.917C118.129 170.438 118.593 168.941 119.159 167.591C120.524 164.338 120.037 156.326 118.175 151.417C116.074 145.876 110.484 141.26 102.619 138.568C101.518 138.192 101.651 137.885 103.958 135.478C111.067 128.059 113.879 120.391 111.737 114.257C111.176 112.652 111.29 111.867 112.396 109.703C113.176 108.176 114.127 104.26 114.68 100.295C116.29 88.7495 116.883 85.545 117.86 83.1057C118.756 80.8698 118.955 80.7481 121.801 80.6942C126.615 80.6023 142.55 74.9159 147.85 71.3983C153.634 67.5605 156.463 64.3984 155.948 62.3496C155.737 61.5134 153.144 55.6914 150.183 49.4124C146.348 41.2759 144.801 37.2948 144.801 35.5585C144.801 32.437 143.314 28.2417 141.251 25.5418C139.748 23.5753 139.69 23.2527 140.437 21.0612C141.42 18.1762 141.267 16.9945 139.429 13.3196C138.641 11.7456 137.825 9.34744 137.614 7.9902C137.135 4.90741 135.092 2.67598 132.265 2.14665C131.071 1.92287 129.943 1.3479 129.759 0.869282C129.396 -0.0746374 127.655 -0.346592 127.655 0.540274C127.655 0.83822 125.648 1.82208 123.195 2.72606C118.426 4.48394 117.226 4.37491 112.01 1.71304C109.03 0.192247 106.548 -0.040405 104.207 0.981488ZM114.413 4.74512C117.49 6.5011 121.951 6.86941 123.34 5.48238C123.811 5.012 125.297 4.2646 126.642 3.82149C130.43 2.57328 133.325 3.70041 135.095 7.11158C138.939 14.5209 139.953 18.9039 138.402 21.4022C137.857 22.2808 138.252 23.42 140.361 27.0499C143.099 31.7619 144.255 36.2444 142.94 37.0552C141.864 37.7195 140.315 36.1886 138.946 33.1058C137.704 30.3089 136.527 29.9324 136.963 32.4719C137.323 34.5721 136.322 35.7404 134.549 35.2865C132.753 34.8263 129.421 30.0915 127.399 25.1272C126.592 23.1443 125.76 21.3509 125.549 21.1404C125.339 20.9299 124.584 21.7439 123.871 22.949C122.497 25.2743 120.72 26.4534 118.135 26.7551C117.14 26.8718 116.469 27.41 116.324 28.2081C115.69 31.6902 111.469 33.2763 108.557 31.1267C107.563 30.3932 106.634 29.7929 106.493 29.7929C106.352 29.7929 105.762 31.005 105.182 32.4871C102.27 39.9281 95.1565 43.5022 91.3037 39.4603C89.6602 37.736 88.8023 35.124 88.1412 32.0465C87.3359 28.2978 87.9196 23.9202 88.3622 22.2308C89.048 19.6139 93.0418 17.1143 96.5377 17.1143C98.7407 17.1143 99.9536 15.6975 99.5516 13.5954C99.37 12.6489 99.6227 11.5896 100.157 11.0565C100.688 10.5259 100.781 10.1411 100.377 10.1411C99.5141 10.1411 101.234 6.6019 103.073 4.59425C104.984 2.50799 110.624 2.58279 114.413 4.74512ZM128.153 30.6157C131.75 37.8615 133.073 38.8967 137.279 37.7519C138.653 37.3779 139.043 37.537 139.385 38.6128C139.797 39.9053 141.874 40.8429 143.458 40.4505C143.944 40.3301 146.104 44.2097 148.974 50.3556C151.568 55.912 153.691 60.6906 153.691 60.9739C153.691 61.2573 153.233 61.4893 152.674 61.4893C151.177 61.4893 140.823 65.0387 136.657 66.9798C134.674 67.9034 131.624 69.5757 129.877 70.6971C123.857 74.5609 119.374 77.3375 119.155 77.3375C119.035 77.3375 118.431 75.9822 117.812 74.3264C117.194 72.6705 116.04 69.8889 115.249 68.1456C114.458 66.4023 111.885 60.4116 109.531 54.8331C107.178 49.2545 104.709 43.6106 104.046 42.2914L102.84 39.8926L104.905 37.0229C106.557 34.7261 107.227 34.2393 108.262 34.5835C111.327 35.6035 113.319 34.955 116.1 32.0319C117.604 30.4516 119.242 29.159 119.741 29.159C120.241 29.159 121.582 28.3114 122.723 27.2756C123.863 26.2397 124.965 25.3839 125.17 25.3738C125.374 25.3636 126.717 27.7225 128.153 30.6157ZM87.0381 61.1045C85.8062 64.3395 85.6201 66.9386 86.5657 67.7215C87.0718 68.1411 87.9278 68.3155 88.4676 68.1088C89.5618 67.6891 91.1551 62.0015 90.5899 60.5308C90.0101 59.0233 87.6878 59.3986 87.0381 61.1045ZM153.552 64.1835C153.19 65.3531 145.146 70.6908 140.038 73.1517C133.996 76.0621 120.588 79.5886 122.627 77.7306C122.772 77.5981 125.607 75.7058 128.925 73.5257C135.638 69.1155 139.799 67.0685 146.388 64.9341C151.509 63.2751 153.911 63.0234 153.552 64.1835ZM20.524 76.4868C19.7582 78.4792 25.1782 81.853 27.6346 80.9123C29.4006 80.2359 28.6652 78.2479 26.1206 76.8203C23.1785 75.1701 21.0784 75.0446 20.524 76.4868ZM86.6946 77.4751C89.2284 78.2377 89.2296 78.2403 87.3296 78.4786C83.5435 78.9534 82.8627 81.1874 85.1444 85.6515C86.8298 88.9492 90.0177 90.477 92.5979 89.2231C94.0941 88.4959 94.3068 88.0306 94.2522 85.6097C94.1995 83.2635 93.8305 82.5021 91.8803 80.7183C89.0277 78.1084 89.4056 78.0659 93.694 80.5148C98.399 83.2026 100.986 86.0014 100.973 88.3932C100.961 90.787 100.441 91.6193 98.5984 92.193C97.8103 92.4384 96.3059 93.362 95.2543 94.245C93.3657 95.8318 93.3104 95.8381 90.7087 94.7991C84.2205 92.2076 73.922 84.1611 72.4011 80.4945C71.0123 77.1473 71.6994 76.703 78.2606 76.7074C81.5018 76.7093 85.2975 77.0548 86.6946 77.4751ZM73.1263 87.062C74.6815 87.5292 78.1292 89.5172 80.7881 91.4799C85.8322 95.2042 85.5344 94.7509 88.5762 103.329C89.6304 106.302 89.2106 109.275 87.1423 113.471C85.7522 116.292 84.8631 117.236 82.4843 118.415C75.5115 121.87 64.7082 120.474 58.8951 115.366C53.2819 110.434 51.5565 104.3 53.7277 97.0014C56.2679 88.4623 64.2218 84.3868 73.1263 87.062ZM106.213 89.5407C110.222 94.7985 111.721 98.403 111.818 103.015C111.913 107.529 111.076 110.936 109.873 110.936C109.482 110.936 109.626 111.747 110.221 112.895C110.779 113.972 111.081 115.256 110.892 115.747C110.432 116.944 108.658 116.886 108.186 115.659C107.909 114.94 107.25 115.504 105.724 117.767C103.002 121.801 98.03 126.219 92.5598 129.463C88.5267 131.855 88.1945 132.211 88.5146 133.807C88.9712 136.086 87.2712 136.834 85.5458 135.111C84.3252 133.892 84.277 133.893 80.7411 135.128C74.9228 137.161 63.9506 137.521 65.1146 135.641C65.3242 135.302 66.1764 135.025 67.0083 135.025C68.9573 135.025 69.6228 133.967 67.9977 133.452C66.3339 132.925 62.4621 133.684 61.6143 134.704C61.1336 135.282 61.1539 135.991 61.6861 137.156C62.5707 139.094 65.4074 140.242 72.9352 141.707C77.3366 142.564 79.1217 142.618 83.5416 142.031C89.8279 141.196 91.6854 140.485 97.4471 136.707C104.417 132.136 108.187 126.704 109.357 119.546C109.664 117.67 111.144 117.536 111.144 119.385C111.144 124.693 104.497 134.01 97.5404 138.452C93.9436 140.749 88.0332 142.853 82.3611 143.855C75.0613 145.144 65.5122 142.767 60.4007 138.385L58.2378 136.532L60.5912 134.183C61.895 132.881 66.1148 130.25 70.0565 128.279C79.2811 123.669 85.1863 119.836 87.1505 117.183C89.0525 114.615 90.8223 110.222 90.8223 108.07C90.8223 106.097 91.378 106.103 93.2704 108.094C95.0396 109.956 98.6333 110.225 100.868 108.662C102.946 107.21 105.203 103.366 105.699 100.436C106.07 98.2445 105.865 97.5396 104.18 95.2188C102.705 93.1857 102.325 92.115 102.614 90.8003C103.511 86.7089 103.94 86.5587 106.213 89.5407ZM147.341 94.0688C145.641 94.692 145.118 95.2428 145.118 96.4118C145.118 97.8027 145.358 97.9294 147.78 97.8236C151.36 97.6676 153.185 96.628 152.936 94.8859C152.696 93.2022 150.559 92.8897 147.341 94.0688ZM68.1197 96.4403C66.3136 98.2667 68.0968 104.803 71.1837 107.674C72.8113 109.188 76.7327 109.533 77.9945 108.273C79.0671 107.203 78.9414 104.226 77.7145 101.646C75.8316 97.6835 70.0121 94.5265 68.1197 96.4403ZM91.3843 97.5649C91.9838 97.9434 92.1242 98.6775 91.8257 99.8654C91.3539 101.743 90.8554 101.478 89.6862 98.7326C88.8937 96.8708 89.5611 96.4124 91.3843 97.5649ZM10.7939 101.452C9.69786 103.496 11.1438 104.592 15.532 105.044C18.236 105.322 19.3251 105.199 19.7156 104.567C20.6809 103.008 19.207 101.592 16.1416 101.133C14.5153 100.89 12.8146 100.549 12.3625 100.376C11.9097 100.203 11.2042 100.686 10.7939 101.452ZM135.275 130.88C135.275 132.177 135.731 132.566 137.974 133.183C139.459 133.591 141.673 133.959 142.896 134C144.848 134.065 145.118 133.886 145.118 132.531C145.118 131.211 144.659 130.868 141.943 130.166C136.882 128.856 135.275 129.028 135.275 130.88ZM129.348 163.975C129.115 164.207 128.927 164.991 128.93 165.718C128.937 167.593 136.145 173.273 137.838 172.737C140.503 171.892 139.016 169.465 133.254 165.259C130.841 163.499 130.077 163.247 129.348 163.975ZM39.1116 171.289C35.9333 174.175 35.6088 176.247 38.3407 176.213C40.3424 176.188 44.5876 172.027 44.3444 170.329C44.0218 168.08 42.297 168.396 39.1116 171.289Z" fill="#333333"/>
</svg>
